<svg width="28" height="27" viewBox="0 0 28 27" fill="none" xmlns="http://www.w3.org/2000/svg">
<path d="M8.33 0.5H19.67C23.7139 0.5 27 3.78614 27 7.83V19.17C27 21.114 26.2277 22.9785 24.8531 24.3531C23.4785 25.7277 21.614 26.5 19.67 26.5H8.33C4.28614 26.5 1 23.2139 1 19.17V7.83C1 5.88596 1.77227 4.02155 3.14691 2.64691C4.52155 1.27227 6.38596 0.5 8.33 0.5ZM8.06 2.2C6.63844 2.2 5.2751 2.76471 4.26991 3.76991C3.26471 4.7751 2.7 6.13844 2.7 7.56V19.44C2.7 22.4026 5.09736 24.8 8.06 24.8H19.94C21.3616 24.8 22.7249 24.2353 23.7301 23.2301C24.7353 22.2249 25.3 20.8616 25.3 19.44V7.56C25.3 4.59736 22.9026 2.2 19.94 2.2H8.06Z" fill="#F0F0F0" stroke="#F0F0F0"/>
<path d="M18.7438 9.53122C18.7598 7.29452 16.9917 5.46863 14.7948 5.45298C12.5978 5.43732 10.8321 7.26673 10.8162 9.50342L10.8015 14.2284M10.8015 22.95L10.8015 14.2284M10.8015 14.2284L14.7227 14.1998M10.8015 14.2284L7.29771 14.2284" stroke="#F0F0F0" stroke-width="3"/>
</svg>
