<svg  viewBox="0 0 27 27" xmlns="http://www.w3.org/2000/svg">
<path d="M7.83 0.5H19.17C23.2139 0.5 26.5 3.78614 26.5 7.83V19.17C26.5 21.114 25.7277 22.9785 24.3531 24.3531C22.9785 25.7277 21.114 26.5 19.17 26.5H7.83C3.78614 26.5 0.5 23.2139 0.5 19.17V7.83C0.5 5.88596 1.27227 4.02155 2.64691 2.64691C4.02155 1.27227 5.88596 0.5 7.83 0.5ZM7.56 2.2C6.13844 2.2 4.7751 2.76471 3.76991 3.76991C2.76471 4.7751 2.2 6.13844 2.2 7.56V19.44C2.2 22.4026 4.59736 24.8 7.56 24.8H19.44C20.8616 24.8 22.2249 24.2353 23.2301 23.2301C24.2353 22.2249 24.8 20.8616 24.8 19.44V7.56C24.8 4.59736 22.4026 2.2 19.44 2.2H7.56ZM20.5875 5.225C20.9024 5.225 21.2045 5.35011 21.4272 5.57281C21.6499 5.79551 21.775 6.09755 21.775 6.4125C21.775 6.72745 21.6499 7.02949 21.4272 7.25219C21.2045 7.47489 20.9024 7.6 20.5875 7.6C20.2726 7.6 19.9705 7.47489 19.7478 7.25219C19.5251 7.02949 19.4 6.72744 19.4 6.4125C19.4 6.09756 19.5251 5.79551 19.7478 5.57281C19.9705 5.35011 20.2726 5.225 20.5875 5.225ZM13.5 7.25C15.1576 7.25 16.7473 7.90848 17.9194 9.08058C19.0915 10.2527 19.75 11.8424 19.75 13.5C19.75 15.1576 19.0915 16.7473 17.9194 17.9194C16.7473 19.0915 15.1576 19.75 13.5 19.75C11.8424 19.75 10.2527 19.0915 9.08058 17.9194C7.90848 16.7473 7.25 15.1576 7.25 13.5C7.25 11.8424 7.90848 10.2527 9.08058 9.08058C10.2527 7.90848 11.8424 7.25 13.5 7.25ZM13.5 8.95C12.2933 8.95 11.136 9.42937 10.2827 10.2827C9.42937 11.136 8.95 12.2933 8.95 13.5C8.95 14.7067 9.42937 15.864 10.2827 16.7173C11.136 17.5706 12.2933 18.05 13.5 18.05C14.7067 18.05 15.864 17.5706 16.7173 16.7173C17.5706 15.864 18.05 14.7067 18.05 13.5C18.05 12.2933 17.5706 11.136 16.7173 10.2827C15.864 9.42937 14.7067 8.95 13.5 8.95Z"  stroke="#F0F0F0"/>
</svg>
