<svg width="14" height="20" viewBox="0 0 14 20" fill="none" xmlns="http://www.w3.org/2000/svg">
<path d="M7 10C7.39397 10 7.78407 9.9224 8.14805 9.77164C8.51203 9.62087 8.84274 9.3999 9.12132 9.12132C9.3999 8.84274 9.62087 8.51203 9.77164 8.14805C9.9224 7.78407 10 7.39397 10 7C10 6.60603 9.9224 6.21593 9.77164 5.85195C9.62087 5.48797 9.3999 5.15726 9.12132 4.87868C8.84274 4.6001 8.51203 4.37913 8.14805 4.22836C7.78407 4.0776 7.39397 4 7 4C6.20435 4 5.44129 4.31607 4.87868 4.87868C4.31607 5.44129 4 6.20435 4 7C4 7.39397 4.0776 7.78407 4.22836 8.14805C4.37913 8.51203 4.6001 8.84274 4.87868 9.12132C5.44129 9.68393 6.20435 10 7 10ZM7 0.5C10.5843 0.5 13.5 3.40661 13.5 7C13.5 8.21133 13.0934 9.60548 12.4499 11.0417C11.8095 12.4713 10.9511 13.9062 10.0855 15.1891C9.22092 16.4706 8.35533 17.5913 7.70552 18.3919C7.42325 18.7397 7.18211 19.0266 7 19.2395C6.81789 19.0266 6.57675 18.7397 6.29448 18.3919C5.64467 17.5913 4.77908 16.4706 3.91448 15.1891C3.04892 13.9062 2.19053 12.4713 1.55005 11.0417C0.906636 9.60548 0.5 8.21133 0.5 7C0.5 5.27609 1.18482 3.62279 2.40381 2.40381C3.62279 1.18482 5.27609 0.5 7 0.5Z" fill="#F0F0F0" stroke="#F0F0F0"/>
</svg>
