<svg width="19" height="19" viewBox="0 0 19 19" fill="none" xmlns="http://www.w3.org/2000/svg">
<mask id="path-1-inside-1_25_32" fill="white">
<path d="M17.71 4.0425C18.1 3.6525 18.1 3.0025 17.71 2.6325L15.37 0.2925C15 -0.0975 14.35 -0.0975 13.96 0.2925L12.12 2.1225L15.87 5.8725M0 14.2525V18.0025H3.75L14.81 6.9325L11.06 3.1825L0 14.2525Z"/>
</mask>
<path d="M17.71 4.0425C18.1 3.6525 18.1 3.0025 17.71 2.6325L15.37 0.2925C15 -0.0975 14.35 -0.0975 13.96 0.2925L12.12 2.1225L15.87 5.8725M0 14.2525V18.0025H3.75L14.81 6.9325L11.06 3.1825L0 14.2525Z" fill="#F0F0F0"/>
<path d="M17.71 2.6325L17.0029 3.33961L17.0122 3.34891L17.0217 3.35796L17.71 2.6325ZM15.37 0.2925L14.6445 0.98076L14.6536 0.990304L14.6629 0.999606L15.37 0.2925ZM13.96 0.2925L14.6652 1.00153L14.6671 0.999607L13.96 0.2925ZM12.12 2.1225L11.4148 1.41347L10.7039 2.12057L11.4129 2.82961L12.12 2.1225ZM0 14.2525L-0.707426 13.5457L-1 13.8386V14.2525H0ZM0 18.0025H-1V19.0025H0V18.0025ZM3.75 18.0025V19.0025H4.16448L4.45743 18.7093L3.75 18.0025ZM14.81 6.9325L15.5174 7.63929L16.2239 6.93218L15.5171 6.22539L14.81 6.9325ZM11.06 3.1825L11.7671 2.47539L11.0597 1.76797L10.3526 2.47571L11.06 3.1825ZM18.4171 4.74961C19.187 3.97969 19.2145 2.68143 18.3983 1.90704L17.0217 3.35796C17.0121 3.34884 17.0065 3.33916 17.0039 3.33298C17.0018 3.32774 17.0025 3.32676 17.0025 3.33C17.0025 3.33322 17.0018 3.3361 17.0012 3.33747C17.001 3.33809 17.0015 3.33679 17.0029 3.33539L18.4171 4.74961ZM18.4171 1.92539L16.0771 -0.414607L14.6629 0.999606L17.0029 3.33961L18.4171 1.92539ZM16.0955 -0.39576C15.3211 -1.21202 14.0228 -1.18453 13.2529 -0.414607L14.6671 0.999607C14.6657 1.00101 14.6644 1.00152 14.665 1.00127C14.6664 1.00072 14.6693 1 14.6725 1C14.6757 1 14.6748 1.0007 14.6695 0.998556C14.6633 0.996027 14.6537 0.990376 14.6445 0.98076L16.0955 -0.39576ZM13.2548 -0.416531L11.4148 1.41347L12.8252 2.83153L14.6652 1.00153L13.2548 -0.416531ZM11.4129 2.82961L15.1629 6.57961L16.5771 5.16539L12.8271 1.41539L11.4129 2.82961ZM-1 14.2525V18.0025H1V14.2525H-1ZM0 19.0025H3.75V17.0025H0V19.0025ZM4.45743 18.7093L15.5174 7.63929L14.1026 6.22571L3.04257 17.2957L4.45743 18.7093ZM15.5171 6.22539L11.7671 2.47539L10.3529 3.88961L14.1029 7.63961L15.5171 6.22539ZM10.3526 2.47571L-0.707426 13.5457L0.707426 14.9593L11.7674 3.88929L10.3526 2.47571Z" fill="#F0F0F0" mask="url(#path-1-inside-1_25_32)"/>
</svg>
