<svg viewBox="0 0 27 27" xmlns="http://www.w3.org/2000/svg">
<path d="M8.58 0.5H19.92C23.9639 0.5 27.25 3.78614 27.25 7.83V19.17C27.25 21.114 26.4777 22.9785 25.1031 24.3531C23.7285 25.7277 21.864 26.5 19.92 26.5H8.58C4.53614 26.5 1.25 23.2139 1.25 19.17V7.83C1.25 5.88596 2.02227 4.02155 3.39691 2.64691C4.77155 1.27227 6.63596 0.5 8.58 0.5ZM8.31 2.2C6.88844 2.2 5.5251 2.76471 4.51991 3.76991C3.51471 4.7751 2.95 6.13844 2.95 7.56V19.44C2.95 22.4026 5.34736 24.8 8.31 24.8H20.19C21.6116 24.8 22.9749 24.2353 23.9801 23.2301C24.9853 22.2249 25.55 20.8616 25.55 19.44V7.56C25.55 4.59736 23.1526 2.2 20.19 2.2H8.31Z" fill="#F0F0F0" stroke="#F0F0F0"/>
<path d="M15.335 10.376L10.2397 13.5606L6.54897 10.5289L20.5379 6.8588L16.3489 20.6081L11.5757 14.908L15.9254 11.1796L15.335 10.376Z" stroke="#F0F0F0"/>
</svg>
