<svg viewBox="0 0 27 27" xmlns="http://www.w3.org/2000/svg">
<path d="M8.08 0.5H19.42C23.4639 0.5 26.75 3.78614 26.75 7.83V19.17C26.75 21.114 25.9777 22.9785 24.6031 24.3531C23.2285 25.7277 21.364 26.5 19.42 26.5H8.08C4.03614 26.5 0.75 23.2139 0.75 19.17V7.83C0.75 5.88596 1.52227 4.02155 2.89691 2.64691C4.27155 1.27227 6.13596 0.5 8.08 0.5ZM7.81 2.2C6.38844 2.2 5.0251 2.76471 4.01991 3.76991C3.01471 4.7751 2.45 6.13844 2.45 7.56V19.44C2.45 22.4026 4.84736 24.8 7.81 24.8H19.69C21.1116 24.8 22.4749 24.2353 23.4801 23.2301C24.4853 22.2249 25.05 20.8616 25.05 19.44V7.56C25.05 4.59736 22.6526 2.2 19.69 2.2H7.81Z" fill="#F0F0F0" stroke="#F0F0F0"/>
<path d="M12.9 17.55V7.25H14.6V13.5V19.75H10.7298L6.35476 7.25H8.65301L10.5711 13.6437L10.5733 13.6509L10.5757 13.6581L11.9257 17.7081L12.9 17.55Z"  stroke="#F0F0F0"/>
<path d="M20.8897 7.25L16.7154 13.2133L16.5147 13.5L16.7154 13.7867L20.8897 19.75H18.9602L15.9595 15.4676L15.05 14.1696V15.7545V19.75H12.9V7.25H15.05V11.2455V12.8304L15.9595 11.5324L18.9602 7.25H20.8897Z" stroke="#F0F0F0"/>
</svg>
