<svg width="27" height="27" viewBox="0 0 27 27" fill="none" xmlns="http://www.w3.org/2000/svg">
<path d="M7.83 0.5H19.17C23.2139 0.5 26.5 3.78614 26.5 7.83V19.17C26.5 21.114 25.7277 22.9785 24.3531 24.3531C22.9785 25.7277 21.114 26.5 19.17 26.5H7.83C3.78614 26.5 0.5 23.2139 0.5 19.17V7.83C0.5 5.88596 1.27227 4.02155 2.64691 2.64691C4.02155 1.27227 5.88596 0.5 7.83 0.5ZM7.56 2.2C6.13844 2.2 4.7751 2.76471 3.76991 3.76991C2.76471 4.7751 2.2 6.13844 2.2 7.56V19.44C2.2 22.4026 4.59736 24.8 7.56 24.8H19.44C20.8616 24.8 22.2249 24.2353 23.2301 23.2301C24.2353 22.2249 24.8 20.8616 24.8 19.44V7.56C24.8 4.59736 22.4026 2.2 19.44 2.2H7.56Z" fill="#F0F0F0" stroke="#F0F0F0"/>
<path d="M21.5514 12.852C21.5514 12.3891 21.5271 11.8569 21.4704 11.2397C21.4218 10.6226 21.3489 10.1366 21.2436 9.774L20.7635 9.91345C20.7635 9.91348 20.7635 9.91352 20.7635 9.91355M21.5514 12.852L19.7144 18.0772C19.3931 18.1617 18.7487 18.2305 17.6742 18.277L17.6742 18.277L17.6702 18.2772C16.6256 18.3308 15.6702 18.3537 14.7879 18.3537H14.7789L14.77 18.354L13.491 18.4C11.8032 18.3999 10.4391 18.3691 9.39635 18.312C8.34086 18.2543 7.64874 18.171 7.28432 18.0769C6.71683 17.9264 6.38736 17.6032 6.23651 17.0863C6.14529 16.7721 6.07569 16.3256 6.02808 15.721L6.02812 15.721L6.02753 15.7145C5.97202 15.1104 5.94862 14.5935 5.94862 14.148V14.1293L5.94722 14.1106L5.90003 13.4813C5.90099 11.8172 6.03029 10.6371 6.23681 9.91266C6.38789 9.39608 6.71762 9.07313 7.28536 8.92286C7.60658 8.8383 8.25105 8.76949 9.32585 8.72296L9.32585 8.72297L9.32983 8.72277C10.3745 8.6692 11.3298 8.64628 12.2121 8.64628H12.2211L12.2301 8.64596L13.509 8.6C15.1968 8.60011 16.561 8.63089 17.6037 8.68797C18.6592 8.74574 19.3513 8.82901 19.7157 8.92313C20.2832 9.0736 20.6126 9.39675 20.7635 9.91355M21.5514 12.852L21.6 13.5L21.5514 12.852ZM20.7635 9.91355C20.8547 10.2278 20.9244 10.6743 20.972 11.279L20.9719 11.279L20.9725 11.2855C21.028 11.8896 21.0514 12.4065 21.0514 12.852V12.8707L21.0528 12.8894L21.1 13.5187M20.7635 9.91355L21.1 13.5187M21.1 13.5187C21.0991 15.1829 20.9697 16.363 20.7632 17.0874C20.6121 17.6039 20.2825 17.9268 19.715 18.0771L21.1 13.5187ZM11.38 15.8143V16.6603L12.1212 16.2523L16.3251 13.938L17.1207 13.5L16.3251 13.062L12.1212 10.7477L11.38 10.3397V11.1857V15.8143Z" fill="#F0F0F0" stroke="#F0F0F0"/>
</svg>
